<svg xmlns="http://www.w3.org/2000/svg" xmlns:xlink="http://www.w3.org/1999/xlink" version="1.1" x="0px" y="0px" viewBox="0 0 100 100" enable-background="new 0 0 100 100" xml:space="preserve"><g><g><path d="M50,21.2c-24.9,0-45,9-45,20c0,11,20.1,20,45,20c24.9,0,45-9,45-20C95,30.1,74.9,21.2,50,21.2z M50,60.3    c-23.7,0-43-8.6-43-19.1S26.3,22,50,22c23.7,0,43,8.6,43,19.1S73.7,60.3,50,60.3z"></path><path d="M50,22.9c-22.6,0-41,8.2-41,18.2s18.4,18.2,41,18.2s41-8.2,41-18.2S72.6,22.9,50,22.9z M67.9,49.1c-1,0.9-2.3,1.6-3.8,2.1    s-3.4,0.9-5.6,1.1c-1,0.1-2.2,0.2-3.5,0.3v3h-4.7v-2.8c0,0-0.1,0-0.1,0h-8.4v2.8H37v-2.8h-6.5V29.8H37v-3.1h4.7v3.1h8.1    c0.2,0,0.3,0,0.4,0v-3.1H55V30c1.6,0.1,3.1,0.3,4.3,0.5c2.4,0.5,4.2,1.2,5.6,2.1c1.3,1,2,2,2,3c0,1-0.6,1.9-1.8,2.8    c-1.2,0.9-3,1.6-5.4,2.1c3.1,0.4,5.5,1.1,7.2,2.1c1.7,1,2.5,2.1,2.5,3.5C69.5,47.2,68.9,48.1,67.9,49.1z"></path><path d="M56.8,42.5c-1.7-0.3-4.3-0.4-7.5-0.4H37.4V50h12.8c2.2,0,3.8,0,4.6-0.1c1.6-0.1,2.9-0.3,3.9-0.6c1.1-0.3,1.9-0.7,2.6-1.3    c0.7-0.6,1-1.2,1-1.9c0-0.9-0.5-1.6-1.5-2.2C59.9,43.2,58.6,42.8,56.8,42.5z"></path><path d="M55,39.2c1.7-0.2,3-0.6,3.9-1.1s1.3-1.2,1.3-2c0-0.8-0.4-1.4-1.2-2s-2-1-3.5-1.2c-1.5-0.2-4.1-0.3-7.8-0.3H37.4v6.9h11.1    C51.5,39.4,53.7,39.3,55,39.2z"></path></g><g><path d="M50,64.8c-24.8,0-44.8-8.7-44.8-19.3l0,15.3c0,10.6,20,18.1,44.7,18.1s44.8-7.9,44.8-18.5l0-14.9    C94.8,56.1,74.8,64.8,50,64.8z"></path></g></g></svg>