<svg xmlns="http://www.w3.org/2000/svg" xmlns:xlink="http://www.w3.org/1999/xlink" version="1.1" x="0px" y="0px" viewBox="0 0 52 52" enable-background="new 0 0 52 52" xml:space="preserve"><g><g><g><path d="M40.3574219,50h-4.7148438c-0.5527344,0-1-0.4472656-1-1v-1.9648438     c-0.2236328-0.0830078-0.4433594-0.1728516-0.6582031-0.2714844l-1.3886719,1.3886719     c-0.390625,0.390625-1.0234375,0.390625-1.4140625,0l-3.3330078-3.3330078c-0.390625-0.390625-0.390625-1.0234375,0-1.4140625     l1.3886719-1.3896484c-0.0986328-0.2148438-0.1884766-0.4345703-0.2714844-0.6582031H27c-0.5527344,0-1-0.4472656-1-1v-4.7138672     c0-0.5527344,0.4472656-1,1-1h1.9658203c0.0830078-0.2236328,0.1728516-0.4433594,0.2714844-0.6582031l-1.3896484-1.3896484     c-0.1875-0.1875-0.2929688-0.4414063-0.2929688-0.7070313s0.1054688-0.5195313,0.2929688-0.7070313l3.3339844-3.3330078     c0.390625-0.390625,1.0234375-0.390625,1.4140625,0l1.3886719,1.3886719     c0.2148438-0.0986328,0.4345703-0.1884766,0.6582031-0.2714844V27c0-0.5527344,0.4472656-1,1-1h4.7148438     c0.5527344,0,1,0.4472656,1,1v1.9658203c0.2236328,0.0830078,0.4433594,0.1728516,0.6582031,0.2714844l1.3886719-1.3886719     c0.390625-0.390625,1.0234375-0.390625,1.4140625,0l3.3339844,3.3330078c0.1875,0.1875,0.2929688,0.4414063,0.2929688,0.7070313     s-0.1054688,0.5195313-0.2929688,0.7070313l-1.3886719,1.3896484c0.0976563,0.2138672,0.1884766,0.4335938,0.2705078,0.6582031     H49c0.5527344,0,1,0.4472656,1,1v4.7138672c0,0.5527344-0.4472656,1-1,1h-1.9658203     c-0.0820313,0.2246094-0.1728516,0.4443359-0.2705078,0.6582031l1.3886719,1.3896484     c0.1875,0.1875,0.2929688,0.4414063,0.2929688,0.7070313s-0.1054688,0.5195313-0.2929688,0.7070313l-3.3339844,3.3330078     c-0.390625,0.390625-1.0234375,0.390625-1.4140625,0l-1.3886719-1.3886719     c-0.2148438,0.0986328-0.4345703,0.1884766-0.6582031,0.2714844V49C41.3574219,49.5527344,40.9101563,50,40.3574219,50z      M36.6425781,48h2.7148438v-1.6904297c0-0.4472656,0.296875-0.8408203,0.7275391-0.9619141     c0.5771484-0.1640625,1.1289063-0.390625,1.6376953-0.6757813c0.3916016-0.2158203,0.8789063-0.1503906,1.1953125,0.1660156     l1.1933594,1.1933594l1.9199219-1.9189453l-1.1943359-1.1943359c-0.3173828-0.3164063-0.3847656-0.8056641-0.1650391-1.1962891     c0.2822266-0.5029297,0.5097656-1.0537109,0.6757813-1.6376953c0.1220703-0.4296875,0.5146484-0.7265625,0.9619141-0.7265625H48     v-2.7138672h-1.6904297c-0.4472656,0-0.8398438-0.296875-0.9619141-0.7265625     c-0.1660156-0.5839844-0.3935547-1.1347656-0.6757813-1.6376953c-0.2197266-0.390625-0.1523438-0.8798828,0.1650391-1.1962891     l1.1943359-1.1943359l-1.9199219-1.9189453l-1.1933594,1.1933594c-0.3154297,0.3173828-0.8037109,0.3828125-1.1953125,0.1660156     c-0.5087891-0.2851563-1.0605469-0.5117188-1.6376953-0.6757813c-0.4306641-0.1210938-0.7275391-0.5146484-0.7275391-0.9619141     V28h-2.7148438v1.6914063c0,0.4472656-0.296875,0.8408203-0.7275391,0.9619141     c-0.5771484,0.1640625-1.1289063,0.390625-1.6376953,0.6757813c-0.390625,0.2167969-0.8789063,0.1503906-1.1953125-0.1660156     l-1.1933594-1.1933594L29.96875,31.8886719l1.1943359,1.1943359c0.3164063,0.3164063,0.3837891,0.8046875,0.1650391,1.1953125     c-0.2832031,0.5078125-0.5107422,1.0585938-0.6748047,1.6376953c-0.1210938,0.4306641-0.5146484,0.7275391-0.9619141,0.7275391     H28v2.7138672h1.6914063c0.4472656,0,0.8408203,0.296875,0.9619141,0.7275391     c0.1640625,0.5791016,0.3916016,1.1298828,0.6748047,1.6376953c0.21875,0.390625,0.1513672,0.8789063-0.1650391,1.1953125     l-1.1933594,1.1943359l1.9189453,1.9189453l1.1933594-1.1933594c0.3164063-0.3154297,0.8056641-0.3818359,1.1953125-0.1660156     c0.5087891,0.2851563,1.0605469,0.5117188,1.6376953,0.6757813c0.4306641,0.1210938,0.7275391,0.5146484,0.7275391,0.9619141V48z     "></path></g></g><g><g><path d="M38,43.8125c-3.2050781,0-5.8125-2.6074219-5.8125-5.8125S34.7949219,32.1875,38,32.1875S43.8125,34.7949219,43.8125,38     S41.2050781,43.8125,38,43.8125z M38,34.1875c-2.1025391,0-3.8125,1.7099609-3.8125,3.8125S35.8974609,41.8125,38,41.8125     S41.8125,40.1025391,41.8125,38S40.1025391,34.1875,38,34.1875z"></path></g></g><g><g><path d="M14,26C7.3828125,26,2,20.6171875,2,14S7.3828125,2,14,2s12,5.3828125,12,12S20.6171875,26,14,26z M14,4     C8.4863281,4,4,8.4863281,4,14s4.4863281,10,10,10s10-4.4863281,10-10S19.5136719,4,14,4z"></path></g></g><g><g><rect x="13" y="3" width="2" height="3"></rect></g></g><g><g><rect x="13" y="22" width="2" height="3"></rect></g></g><g><g><rect x="22" y="13" width="3" height="2"></rect></g></g><g><g><rect x="3" y="13" width="3" height="2"></rect></g></g><g><g><path d="M10,19c-0.2558594,0-0.5117188-0.0976563-0.7070313-0.2929688c-0.390625-0.390625-0.390625-1.0234375,0-1.4140625     L13,13.5859375V9c0-0.5527344,0.4472656-1,1-1s1,0.4472656,1,1v5c0,0.265625-0.1054688,0.5195313-0.2929688,0.7070313l-4,4     C10.5117188,18.9023438,10.2558594,19,10,19z"></path></g></g><g><g><path d="M22,39h-5c-2.2060547,0-4-1.7939453-4-4v-5c0-0.5527344,0.4472656-1,1-1s1,0.4472656,1,1v5c0,1.1025391,0.8974609,2,2,2     h5c0.5527344,0,1,0.4472656,1,1S22.5527344,39,22,39z"></path></g></g><g><g><path d="M38,23c-0.5527344,0-1-0.4472656-1-1v-5c0-1.1025391-0.8974609-2-2-2h-5c-0.5527344,0-1-0.4472656-1-1s0.4472656-1,1-1h5     c2.2060547,0,4,1.7939453,4,4v5C39,22.5527344,38.5527344,23,38,23z"></path></g></g></g></svg>