<svg xmlns="http://www.w3.org/2000/svg" xmlns:xlink="http://www.w3.org/1999/xlink" version="1.1" x="0px" y="0px" viewBox="0 0 260.3 277.3" style="enable-background:new 0 0 260.3 277.3;" xml:space="preserve"><style type="text/css">
	.st0{fill:none;}
	.st1{fill:#1A1A1A;}
</style><g><path d="M50.7,142.2l0.6,1.1c0.1,0.2,0.5,0.2,0.6,0l0.6-1.1c0-0.1,0.1-0.1,0.1-0.1l1.1-0.6c0.2-0.1,0.2-0.5,0-0.6l-1.1-0.6   c-0.1,0-0.1-0.1-0.1-0.1l-0.6-1.1c-0.1-0.2-0.5-0.2-0.6,0l-0.6,1.1c0,0.1-0.1,0.1-0.1,0.1l-1.1,0.6c-0.2,0.1-0.2,0.5,0,0.6l1.1,0.6   C50.6,142.1,50.6,142.1,50.7,142.2z"></path><path d="M220.5,227.3c-0.1,0-0.1-0.1-0.1-0.1l-0.6-1.1c-0.1-0.2-0.5-0.2-0.6,0l-0.6,1.1c0,0.1-0.1,0.1-0.1,0.1l-1.1,0.6   c-0.2,0.1-0.2,0.5,0,0.6l1.1,0.6c0.1,0,0.1,0.1,0.1,0.1l0.6,1.1c0.1,0.2,0.5,0.2,0.6,0l0.6-1.1c0-0.1,0.1-0.1,0.1-0.1l1.1-0.6   c0.2-0.1,0.2-0.5,0-0.6L220.5,227.3z"></path><path d="M206.8,33.6c0.1,0,0.1,0.1,0.1,0.1l0.6,1.1c0.1,0.2,0.5,0.2,0.6,0l0.6-1.1c0-0.1,0.1-0.1,0.1-0.1l1.1-0.6   c0.2-0.1,0.2-0.5,0-0.6l-1.1-0.6c-0.1,0-0.1-0.1-0.1-0.1l-0.6-1.1c-0.1-0.2-0.5-0.2-0.6,0l-0.6,1.1c0,0.1-0.1,0.1-0.1,0.1l-1.1,0.6   c-0.2,0.1-0.2,0.5,0,0.6L206.8,33.6z"></path><path d="M81.1,26.1l1.7,0.9c0.1,0,0.2,0.1,0.2,0.2l0.9,1.7c0.2,0.4,0.7,0.4,0.9,0l0.9-1.7c0-0.1,0.1-0.2,0.2-0.2l1.7-0.9   c0.4-0.2,0.4-0.7,0-0.9L86,24.3c-0.1,0-0.2-0.1-0.2-0.2l-0.9-1.7c-0.2-0.4-0.7-0.4-0.9,0L83,24.1c0,0.1-0.1,0.2-0.2,0.2l-1.7,0.9   C80.8,25.4,80.8,25.9,81.1,26.1z"></path><path d="M38.7,199.1c-0.1,0-0.1-0.1-0.1-0.1l-0.6-1.2c-0.1-0.3-0.5-0.3-0.6,0l-0.6,1.2c0,0.1-0.1,0.1-0.1,0.1l-1.1,0.6   c-0.2,0.1-0.2,0.5,0,0.6l1.1,0.6c0.1,0,0.1,0.1,0.1,0.1l0.6,1.2c0.1,0.3,0.5,0.3,0.6,0l0.6-1.2c0-0.1,0.1-0.1,0.1-0.1l1.1-0.6   c0.2-0.1,0.2-0.5,0-0.6L38.7,199.1z"></path><path d="M207.8,133.1l-1.1-0.6c-0.1,0-0.1-0.1-0.1-0.1l-0.6-1.2c-0.1-0.3-0.5-0.3-0.6,0l-0.6,1.2c0,0.1-0.1,0.1-0.1,0.1l-1.1,0.6   c-0.2,0.1-0.2,0.5,0,0.6l1.1,0.6c0.1,0,0.1,0.1,0.1,0.1l0.6,1.2c0.1,0.3,0.5,0.3,0.6,0l0.6-1.2c0-0.1,0.1-0.1,0.1-0.1l1.1-0.6   C208,133.6,208,133.2,207.8,133.1z"></path><path d="M40.4,45.6L38.1,46c-0.1,0-0.2,0-0.4,0L35.6,45c-0.5-0.2-1,0.2-0.9,0.7l0.4,2.3c0,0.1,0,0.2,0,0.4l-0.9,2.2   c-0.2,0.5,0.2,1,0.7,0.9l2.3-0.4c0.1,0,0.2,0,0.4,0l2.2,0.9c0.5,0.2,1-0.2,0.9-0.7L40.1,49c0-0.1,0-0.2,0-0.4l0.9-2.2   C41.3,46,40.9,45.5,40.4,45.6z"></path><path d="M56.6,234.8l-2.3,0.4c-0.1,0-0.2,0-0.4,0l-2.2-0.9c-0.5-0.2-1,0.2-0.9,0.7l0.4,2.3c0,0.1,0,0.2,0,0.4l-0.9,2.2   c-0.2,0.5,0.2,1,0.7,0.9l2.3-0.4c0.1,0,0.2,0,0.4,0l2.2,0.9c0.5,0.2,1-0.2,0.9-0.7l-0.4-2.3c0-0.1,0-0.2,0-0.4l0.9-2.2   C57.5,235.2,57.1,234.7,56.6,234.8z"></path><path d="M201.3,191.9l-1.9,0.3c-0.1,0-0.2,0-0.3,0l-1.8-0.7c-0.4-0.2-0.8,0.2-0.7,0.6l0.3,1.9c0,0.1,0,0.2,0,0.3l-0.7,1.8   c-0.2,0.4,0.2,0.8,0.6,0.7l1.9-0.3c0.1,0,0.2,0,0.3,0l1.8,0.7c0.4,0.2,0.8-0.2,0.7-0.6l-0.3-1.9c0-0.1,0-0.2,0-0.3l0.7-1.8   C202,192.2,201.7,191.8,201.3,191.9z"></path><path d="M224.6,161.7c0.2-0.4-0.2-0.8-0.6-0.7l-1.9,0.3c-0.1,0-0.2,0-0.3,0l-1.8-0.7c-0.4-0.2-0.8,0.2-0.7,0.6l0.3,1.9   c0,0.1,0,0.2,0,0.3l-0.7,1.8c-0.2,0.4,0.2,0.8,0.6,0.7l1.9-0.3c0.1,0,0.2,0,0.3,0l1.8,0.7c0.4,0.2,0.8-0.2,0.7-0.6l-0.3-1.9   c0-0.1,0-0.2,0-0.3L224.6,161.7z"></path><path d="M67.3,173.2l-1.9,0.3c-0.1,0-0.2,0-0.3,0l-1.8-0.7c-0.4-0.2-0.8,0.2-0.7,0.6l0.3,1.9c0,0.1,0,0.2,0,0.3l-0.7,1.8   c-0.2,0.4,0.2,0.8,0.6,0.7l1.9-0.3c0.1,0,0.2,0,0.3,0l1.8,0.7c0.4,0.2,0.8-0.2,0.7-0.6L67,176c0-0.1,0-0.2,0-0.3l0.7-1.8   C68,173.6,67.7,173.2,67.3,173.2z"></path><path d="M135.5,153.7c8.4,0,15.3-6.9,15.3-15.3c0-8.5-6.9-15.3-15.3-15.3s-15.3,6.9-15.3,15.3C120.2,146.9,127.1,153.7,135.5,153.7   z M135.5,126.1c6.8,0,12.3,5.5,12.3,12.3c0,6.8-5.5,12.3-12.3,12.3s-12.3-5.5-12.3-12.3C123.2,131.6,128.7,126.1,135.5,126.1z"></path><path d="M135.5,143.5c2.8,0,5.1-2.3,5.1-5c0-2.8-2.3-5.1-5.1-5.1s-5,2.3-5,5.1C130.5,141.2,132.7,143.5,135.5,143.5z M135.6,136   c0.4-0.5,1.3-0.6,1.8-0.2c0.5,0.5,0.6,1.3,0.1,1.8c-0.4,0.5-1.3,0.6-1.8,0.1C135.2,137.4,135.1,136.6,135.6,136z"></path><path d="M217.8,81.9c-1.6-2.6-4.8-3.3-7.5-2.1c-2.3,1-3.5,3.1-3.4,5.4c-12.6,2.5-23.8,9.9-31.2,20.4c-4.4,6.3-6.6,13.3-7.6,20.5   c-2.8-7.7-8.3-14.2-15.3-18.3c0,0,0,0,0,0c1.9-10.3,4.6-20.6,11.8-28.5c8.6-9.6,20.8-15.2,33.7-15.5c1.3,2.5,4.2,4,7.1,3   c3.2-1.1,5-4.7,3.5-7.8c-2.6-5.3-10.6-3.6-11.2,1.8c0,0,0,0,0,0c-13.2,0.5-25.8,6.2-34.8,15.9c-7.7,8.3-10.8,18.8-12.8,29.7   c-4.1-1.9-8.7-3-13.5-3.2c0.1-21.6,0.5-43.2,0.6-64.8c0,0,0,0,0,0c1.6-0.5,3.1-1.6,3.8-3.2c0,0,0-0.1,0.1-0.1c0,0,0,0,0,0   c0.1-0.1,0.1-0.2,0.2-0.4c0.8-2.8-0.3-5.5-3-6.8c-2.7-1.3-6-0.6-7.6,2c-1.8,2.9-0.5,6.6,2.4,8.1c0.4,0.2,0.7,0.3,1.1,0.4   c-0.1,21.6-0.5,43.2-0.6,64.8c0,0,0,0,0,0c-5.1,0.3-10,1.7-14.3,4c-2-11.2-5.1-22-13-30.6c-9-9.7-21.6-15.4-34.8-15.9c0,0,0,0,0,0   c-0.5-5.3-8.6-7-11.1-1.8c-1.4,3,0.2,6.6,3.3,7.7c2.9,1.1,5.9-0.4,7.3-3c12.8,0.4,25.1,6,33.7,15.5c7.3,8.1,10,18.6,11.9,29.1   c0,0.2,0.1,0.4,0.2,0.5c0,0,0,0,0,0c-6.2,4.1-11.1,10.1-13.7,17.3c-1.1-7.3-3.2-14.3-7.6-20.6C87.9,95.1,76.6,87.7,64,85.2   c0,0,0,0,0,0c0.1-2.3-1-4.3-3.2-5.3c-2.7-1.3-6-0.6-7.6,2c-1.8,2.8-0.5,6.6,2.4,8.1c2.6,1.3,5.7,0.3,7.4-1.9   c12.2,2.4,23.1,9.3,30,19.6c6.4,9.4,7.6,20.3,7.8,31.5c0,0,0,0.1,0,0.1v91.8c-0.4,3.9-4.5,5.9-7.5,7.6c-3.1,1.7-6.3,3.3-8.5,6.2   c-2.8,3.7-3,10.7,2.1,12.6c3.2,1.2,6.4-0.3,9.1-2c3.1-2,5.8-3.6,9.5-2c4.9,2.1,9.4,7,15.2,4.8c2.7-1,4.5-3.4,6.4-5.6   c2.7-3.1,5.7-4.7,9.9-4.3c7.9,0.9,14.2,6.9,22.1,7.9c3.3,0.4,6.4-0.3,9.2-2c2.8-1.7,5-4.1,8-5.4c6.4-2.9,12.5,5.5,18.9,1.5   c2.6-1.6,3.3-4.7,2.3-7.4c-1.3-3.5-4.7-5.4-8.2-6.2c-4.3-0.9-8.7-0.2-13-1.2c-1.7-0.4-3.9-0.9-5.3-2c-1-0.9-0.8-2.2-0.8-3.5   c0-0.1,0-0.2,0-0.3v-90.6c0.2-11.2,1.4-22,7.8-31.5c7-10.3,17.9-17.3,30-19.6c1.6,2.2,4.7,3.2,7.2,2   C218.3,88.6,219.6,84.8,217.8,81.9z M202,59.1c1-0.5,2.4-0.5,3.3,0.2c1.5,1.2,1.3,3.3-0.3,4.3c-1.8,1.2-3.8,0-4.4-1.9   C200.5,60.6,200.8,59.7,202,59.1z M68.5,61.8C68.5,61.8,68.5,61.8,68.5,61.8c-0.5,1.7-2.4,2.9-4.2,2c-1.7-0.9-2.1-3.2-0.5-4.5   c0.9-0.7,2.2-0.7,3.2-0.3C68.2,59.6,68.5,60.5,68.5,61.8z M60.9,85.7C60.9,85.7,60.9,85.7,60.9,85.7c-0.7,1.3-2.2,2.3-3.7,1.7   c-1.8-0.7-2.5-3.1-1-4.5c1-0.9,2.3-0.9,3.4-0.3C60.9,83.3,61.3,84.3,60.9,85.7z M133.6,31.1c1-0.9,2.3-0.9,3.4-0.3   c1.3,0.7,1.7,1.7,1.3,3.1v0c-0.7,1.3-2.2,2.3-3.7,1.7C132.8,34.9,132.2,32.5,133.6,31.1z M175.1,238.4c3.4,0.8,6.9,0.7,10.5,0.9   c3.4,0.2,8.4,1.2,9.3,5.3c1,4.6-4.9,4-7.5,2.9c-2.9-1.1-5.7-2.7-8.9-2.4c-6.1,0.6-9.5,6.9-15.4,8c-7.5,1.5-14.4-4.6-21.1-6.8   c-5.9-1.9-11.9-1.4-16.2,3.3c-1.9,2.1-3.7,5.1-6.6,5.9c-2.8,0.7-5.5-1.1-7.7-2.5c-4.8-2.9-9.2-4.8-14.4-1.8c-2.6,1.5-8,6-10.4,1.8   c-2-3.5,0.8-7.3,3.6-9.2c5.1-3.6,12.8-5.6,13.8-12.7h0v-0.2c0,0,0,0,0-0.1c0-0.1,0-0.3,0-0.4v-92.8c0-17.5,14.2-31.7,31.7-31.7   s31.7,14.2,31.7,31.7v1.2v0v92.1h0.1c0,1.5,0.2,3,1.2,4.1C170,237.1,172.9,237.9,175.1,238.4z M214.1,87.3c-1.6,0.8-3.2-0.2-4-1.5   c0,0,0,0,0,0c-0.3-1.3,0-2.3,1.2-3c1.2-0.6,2.6-0.7,3.6,0.3C216.2,84.3,215.7,86.4,214.1,87.3z"></path><path d="M151.4,172.5c-10.3,0.3-20.6,0.6-30.9,0.9c-0.7,0-1.2,0.5-1.4,1c0,0,0,0,0,0c-0.2,0.3-0.3,0.7-0.1,1.1   c3.4,9.3,11.3,17.8,22,16.7c9.1-0.9,15.8-10.3,11.6-19C152.5,172.8,151.9,172.5,151.4,172.5z M149,184.7c-2.3,3.3-6.3,4.7-10.2,4.6   c-5.8-0.2-10.4-3.7-13.5-8.2c8.5-0.3,17-0.6,25.6-0.9C150.6,181.8,149.9,183.4,149,184.7z M123.7,178.2c-0.1,0-0.1,0-0.2,0   c-0.3-0.6-0.6-1.3-0.9-1.9c9.3-0.3,18.5-0.5,27.8-0.8c0.2,0.6,0.4,1.1,0.4,1.7C141.8,177.6,132.8,177.9,123.7,178.2z"></path></g></svg>