<svg xmlns="http://www.w3.org/2000/svg" xmlns:xlink="http://www.w3.org/1999/xlink" version="1.1" viewBox="0 0 96 96" x="0px" y="0px"><path d="M84.984 60c-0.436 0-0.884-0.144-1.252-0.436-0.864-0.688-1-1.944-0.308-2.812l6.992-8.752-6.992-8.748c-0.692-0.86-0.556-2.124 0.308-2.812 0.872-0.692 2.124-0.552 2.812 0.312l7.996 10c0.584 0.732 0.584 1.768 0 2.5l-7.996 10c-0.392 0.492-0.972 0.748-1.56 0.748z" fill="#000000"></path><path d="M91.024 50h-88c-1.1 0-2-0.896-2-2s0.9-2 2-2h88c1.1 0 2 0.896 2 2s-0.9 2-2 2z" fill="#000000"></path></svg>