<svg xmlns="http://www.w3.org/2000/svg" xmlns:xlink="http://www.w3.org/1999/xlink" version="1.1" x="0px" y="0px" viewBox="0 0 100 100" enable-background="new 0 0 100 100" xml:space="preserve"><path fill="#000000" d="M81,37.269V10H66v11.633L50.181,6.004L7,49h8v43h70V49h7.992L81,37.269z M71.258,55.744  c3.61,0,6.54,2.926,6.54,6.536s-2.93,6.536-6.54,6.536c-3.606,0-6.533-2.926-6.533-6.536S67.651,55.744,71.258,55.744z M52.359,64.6  c2.588,0,4.689,2.102,4.689,4.692c0,2.586-2.102,4.687-4.689,4.687c-2.59,0-4.688-2.101-4.688-4.687  C47.671,66.701,49.77,64.6,52.359,64.6z M30.707,47.229c4.56,0,8.261,3.698,8.261,8.261c0,4.563-3.702,8.263-8.261,8.263  c-4.568,0-8.266-3.699-8.266-8.263C22.441,50.927,26.138,47.229,30.707,47.229z M42,88H19V77.961  c0-6.468,5.043-11.705,11.505-11.705S42,71.493,42,77.961V88z M59,88H46v-5.957c0-3.671,2.833-6.645,6.501-6.645  c3.67,0,6.499,2.974,6.499,6.645V88z M81,88H62v-7.943c0-5.115,4.387-9.26,9.5-9.26c5.115,0,9.5,4.145,9.5,9.26V88z"></path></svg>