<svg xmlns="http://www.w3.org/2000/svg" xmlns:xlink="http://www.w3.org/1999/xlink" version="1.1" x="0px" y="0px" viewBox="0 0 50 50" enable-background="new 0 0 50 50" xml:space="preserve"><g><path fill="#000000" d="M2.302,24.065C2.176,31.249,4.453,36.974,9.199,41.31c4.747,4.301,10.063,6.453,15.916,6.453   c3.921,0,7.623-0.918,11.071-2.754c3.446-1.867,6.231-4.525,8.386-8.068c2.117-3.512,3.163-7.592,3.13-12.275   c-0.062-4.49-1.14-8.414-3.257-11.803c-2.091-3.381-4.872-6.01-8.321-7.84c-3.45-1.865-7.088-2.785-10.853-2.785   c-2.593,0-5.19,0.473-7.813,1.391c-2.625,0.947-5.095,2.373-7.371,4.273c-2.31,1.93-4.145,4.205-5.508,6.896   C3.188,17.452,2.431,20.556,2.302,24.065L2.302,24.065z M14.989,13.976c-0.506,0.949-1.012,2.465-1.518,4.553   c-0.509,2.086-0.791,3.924-0.822,5.537H4.425c0.505-5.504,2.245-9.84,5.217-12.941c0.318,0.318,0.729,0.604,1.298,0.918   c0.57,0.316,1.203,0.633,1.896,0.949C13.567,13.308,14.262,13.626,14.989,13.976L14.989,13.976z M19.262,5.241   c-1.52,2.15-2.755,4.461-3.734,6.959c-2.403-1.139-3.892-1.961-4.493-2.498C13.091,7.614,15.813,6.126,19.262,5.241L19.262,5.241z    M21.979,4.642c0.226-0.033,0.445-0.066,0.636-0.096c0.223-0.033,0.443-0.033,0.729-0.033h0.726v9.871   c-0.759,0-1.739-0.127-2.974-0.408c-1.233-0.254-2.5-0.602-3.765-0.984C18.534,10.017,20.081,7.235,21.979,4.642L21.979,4.642z    M24.069,16.472v7.594h-9.492c0-2.945,0.698-6.076,2.088-9.396C19.767,15.87,22.235,16.472,24.069,16.472L24.069,16.472z    M24.069,25.993v7.688c-1.865,0-4.303,0.604-7.277,1.805c-0.439-0.855-0.916-2.34-1.454-4.492c-0.505-2.184-0.761-3.828-0.761-5   H24.069L24.069,25.993z M12.649,25.993c0,2.469,0.728,5.854,2.213,10.156c-3.255,1.646-4.997,2.564-5.221,2.754   c-1.613-1.738-2.845-3.859-3.732-6.326c-0.884-2.469-1.33-4.652-1.33-6.584H12.649L12.649,25.993z M24.069,35.485v10.219   l-2.091-0.125c-1.8-2.502-3.383-5.348-4.647-8.479C18.218,36.659,20.463,36.122,24.069,35.485L24.069,35.485z M15.527,37.89   c1.644,3.42,2.911,5.758,3.86,7.025c-2.75-0.822-5.536-2.344-8.354-4.557C12.554,39.376,14.041,38.554,15.527,37.89L15.527,37.89z    M28.119,45.579l-2.056,0.125V35.612c2.15,0.125,4.397,0.633,6.738,1.488C30.902,41.276,29.321,44.093,28.119,45.579L28.119,45.579   z M39.098,40.358c-2.117,2.213-4.841,3.703-8.228,4.398c0.666-0.824,1.235-1.709,1.74-2.596c0.479-0.885,0.919-1.803,1.298-2.785   c0.381-0.947,0.602-1.451,0.636-1.486C37.073,39.126,38.59,39.946,39.098,40.358L39.098,40.358z M45.617,25.993   c0,2.277-0.477,4.652-1.489,7.121s-2.183,4.396-3.574,5.789c-0.348-0.285-0.98-0.635-1.901-1.107   c-0.916-0.475-2.055-1.074-3.381-1.771c1.612-4.145,2.402-7.467,2.402-10.031H45.617L45.617,25.993z M35.554,25.993   c0,2.787-0.696,5.918-2.089,9.492c-0.791-0.441-1.961-0.887-3.512-1.295c-1.518-0.445-2.814-0.602-3.89-0.51v-7.688H35.554   L35.554,25.993z M26.063,16.472c1.962,0,4.43-0.602,7.401-1.803c0.443,0.727,0.918,2.152,1.393,4.209   c0.443,2.023,0.696,3.764,0.696,5.188h-9.49V16.472L26.063,16.472z M40.427,11.124c1.583,1.521,2.846,3.449,3.797,5.855   c0.948,2.404,1.394,4.779,1.394,7.086h-8.07c0-3.039-0.759-6.391-2.275-10.09C37.578,12.862,39.319,11.917,40.427,11.124   L40.427,11.124z M39.098,9.702c-0.508,0.443-1.962,1.328-4.429,2.625c-1.14-2.814-2.502-5.221-4.049-7.211   C33.624,6.001,36.471,7.519,39.098,9.702L39.098,9.702z M27.993,4.642c1.867,2.279,3.481,4.996,4.809,8.221   c-1.233,0.797-3.48,1.303-6.738,1.521V4.513h0.727C27.425,4.513,27.833,4.546,27.993,4.642z"></path></g></svg>