<svg xmlns:dc="http://purl.org/dc/elements/1.1/" xmlns:cc="http://creativecommons.org/ns#" xmlns:rdf="http://www.w3.org/1999/02/22-rdf-syntax-ns#" xmlns:svg="http://www.w3.org/2000/svg" xmlns="http://www.w3.org/2000/svg" xmlns:sodipodi="http://sodipodi.sourceforge.net/DTD/sodipodi-0.dtd" xmlns:inkscape="http://www.inkscape.org/namespaces/inkscape" version="1.1" x="0px" y="0px" viewBox="0 0 100 100"><g transform="translate(0,-952.36218)"><g transform="translate(14.184782999999999, 49.010350000000003)"><g><path style="" transform="rotate(0.0)" d="m 0,50 a 0.001,50 0 0 1 -8.6602544e-4,-25 0.001,50 0 0 1 0,-50 A 0.001,50 0 0 1 0,-50" stroke="#000000" stroke-width="1.0" fill="none"></path><path style="" transform="rotate(32.1782787113)" d="m 0,50 a 14.695631,50 0 0 1 -12.72679,-25 14.695631,50 0 0 1 0,-50 A 14.695631,50 0 0 1 0,-50" stroke="#000000" stroke-width="1.0" fill="none"></path><path style="" transform="rotate(69.4346650444)" d="m 0,50 a 23.777412,50 0 0 1 -20.591843,-25 23.777412,50 0 0 1 0,-50 A 23.777412,50 0 0 1 0,-50" stroke="#000000" stroke-width="1.0" fill="none"></path><path style="" transform="rotate(-69.4346650444)" d="M 0,-50 A 23.777412,50 0 0 1 23.777412,0 23.777412,50 0 0 1 0,50" stroke="#000000" stroke-width="1.0" fill="none"></path><path style="" transform="rotate(-32.1782787113)" d="M 0,-50 A 14.695631,50 0 0 1 14.695631,0 14.695631,50 0 0 1 0,50" stroke="#000000" stroke-width="1.0" fill="none"></path></g><g><path style="" transform="" d="m 27.826311,41.542292 a 45.481598,39.389221 0 0 1 -55.652622,0" stroke="#000000" stroke-width="1.0" fill="none"></path><path style="" transform="" d="M 47.931879,14.231733 A 49.491074,42.861526 0 0 1 0,46.419397 49.491074,42.861526 0 0 1 -47.931879,14.231733" stroke="#000000" stroke-width="1.0" fill="none"></path><path style="" transform="" d="m 47.931879,-14.231733 a 49.491074,42.861526 0 0 1 -19.681877,45.866696 49.491074,42.861526 0 0 1 -56.500004,0 49.491074,42.861526 0 0 1 -19.681877,-45.866696" stroke="#000000" stroke-width="1.0" fill="none"></path><path style="" transform="" d="M 27.826311,-41.542292 A 45.481598,39.389221 0 0 1 43.039641,2.3477322 45.481598,39.389221 0 0 1 0,29.003846 45.481598,39.389221 0 0 1 -43.039641,2.3477322 45.481598,39.389221 0 0 1 -27.826311,-41.542292" stroke="#000000" stroke-width="1.0" fill="none"></path><path style="" transform="" d="M 37.787479,-16.371519 A 37.787479,32.725918 0 0 1 0,16.354399 37.787479,32.725918 0 0 1 -37.787479,-16.371519 37.787479,32.725918 0 0 1 0,-49.097437 37.787479,32.725918 0 0 1 37.787479,-16.371519" stroke="#000000" stroke-width="1.0" fill="none"></path><path style="" transform="" d="M 27.032042,-21.031338 A 27.032042,23.411434 0 0 1 0,2.3800964 27.032042,23.411434 0 0 1 -27.032042,-21.031338 27.032042,23.411434 0 0 1 0,-44.442772 27.032042,23.411434 0 0 1 27.032042,-21.031338" stroke="#000000" stroke-width="1.0" fill="none"></path><path style="" transform="" d="M 14.086628,-23.987324 A 14.086628,12.200377 0 0 1 0,-11.786946 14.086628,12.200377 0 0 1 -14.086628,-23.987324 14.086628,12.200377 0 0 1 0,-36.187701 14.086628,12.200377 0 0 1 14.086628,-23.987324" stroke="#000000" stroke-width="1.0" fill="none"></path></g><path style="" transform="" d="M 50,0 A 50,50 0 0 1 0,50 50,50 0 0 1 -50,0 50,50 0 0 1 0,-50 50,50 0 0 1 50,0" stroke="#000000" stroke-width="1.0" fill="none"></path></g></g><g transform="matrix(0.98888854,0,0,0.98888888,49.999984,50)"><g><path d="m 0,45 a 0.001,45 0 0 1 -8.6602544e-4,-22.5 0.001,45 0 0 1 0,-45 A 0.001,45 0 0 1 0,-45" style="" fill="none" stroke="#000000" stroke-width="1"></path><path d="M 6.1380847e-7,45 A 22.907663,45 0 0 1 -19.838618,22.5 a 22.907663,45 0 0 1 0,-45 A 22.907663,45 0 0 1 4.4934092e-7,-45" transform="matrix(0.93990359,0.34143996,-0.34143996,0.93990359,0,0)" style="" fill="none" stroke="#000000" stroke-width="1"></path><path d="M 9.9314637e-7,45 A 37.064758,45 0 0 1 -32.099022,22.5 a 37.064758,45 0 0 1 0,-45 A 37.064758,45 0 0 1 7.2703673e-7,-45" transform="matrix(0.54489368,0.83850515,-0.83850515,0.54489368,0,0)" style="" fill="none" stroke="#000000" stroke-width="1"></path><path d="M 7.2703673e-7,-45 A 37.064758,45 0 0 1 37.064758,-1.6154071e-7 37.064758,45 0 0 1 9.9314639e-7,45" transform="matrix(0.54489368,-0.83850515,0.83850515,0.54489368,0,0)" style="" fill="none" stroke="#000000" stroke-width="1"></path><path d="M 4.4934092e-7,-45 A 22.907663,45 0 0 1 22.907663,-1.6154071e-7 22.907663,45 0 0 1 6.1380849e-7,45" transform="matrix(0.93990359,-0.34143996,0.34143996,0.93990359,0,0)" style="" fill="none" stroke="#000000" stroke-width="1"></path></g><g><path d="m 10.68596,43.713713 a 24.328836,12.165419 0 0 1 -21.371919,0" style="" fill="none" stroke="#000000" stroke-width="1"></path><path d="M 29.446988,34.028063 A 34.008732,17.005365 0 0 1 -6.1913248e-7,42.526037 34.008732,17.005365 0 0 1 -29.446988,34.028062" style="" fill="none" stroke="#000000" stroke-width="1"></path><path d="M 39.48496,21.585861 A 40.933441,20.46772 0 0 1 -9.4986473e-7,36.656918 40.933441,20.46772 0 0 1 -39.484961,21.58586" style="" fill="none" stroke="#000000" stroke-width="1"></path><path d="M 44.388237,7.3949791 A 44.541965,22.271982 0 0 1 -2.9865849e-7,27.818154 44.541965,22.271982 0 0 1 -44.388237,7.3949788" style="" fill="none" stroke="#000000" stroke-width="1"></path><path d="m 44.388237,-7.39498 a 44.541965,22.271982 0 0 1 -21.057344,20.821059 44.541965,22.271982 0 0 1 -46.661784,1e-6 44.541965,22.271982 0 0 1 -21.057346,-20.8210586" style="" fill="none" stroke="#000000" stroke-width="1"></path><path d="m 39.48496,-21.585861 a 40.933441,20.46772 0 0 1 -15.9504,22.14316037 40.933441,20.46772 0 0 1 -47.069118,7.2e-7 A 40.933441,20.46772 0 0 1 -39.484961,-21.58586" style="" fill="none" stroke="#000000" stroke-width="1"></path><path d="m 29.446987,-34.028063 a 34.008732,17.005365 0 0 1 -7.583819,21.533092 34.008732,17.005365 0 0 1 -43.726335,0 34.008732,17.005365 0 0 1 -7.583821,-21.533091" style="" fill="none" stroke="#000000" stroke-width="1"></path><path d="M 10.68596,-43.713713 A 24.328836,12.165419 0 0 1 23.702671,-30.042321 24.328836,12.165419 0 0 1 -4.7721767e-7,-20.619192 24.328836,12.165419 0 0 1 -23.702671,-30.042322 24.328836,12.165419 0 0 1 -10.685959,-43.713713" style="" fill="none" stroke="#000000" stroke-width="1"></path><ellipse style="" cx="0" cy="-37.392536" rx="12.677965" ry="6.3399825" fill="none" stroke="#000000" stroke-width="1"></ellipse></g><circle style="" cx="0" cy="0" r="45" fill="none" stroke="#000000" stroke-width="1"></circle></g></svg>