<svg xmlns="http://www.w3.org/2000/svg" xmlns:xlink="http://www.w3.org/1999/xlink" version="1.1" x="0px" y="0px" viewBox="0 0 100 100" enable-background="new 0 0 100 100" xml:space="preserve"><path d="M95.447,31.804c-8.74-21.64-31.32-33.532-53.419-29.609c0.056,0.125,0.119,0.243,0.171,0.371  c0.513,1.266,0.733,2.578,0.705,3.86c19.05-3.308,38.513,6.292,47.229,24.067l-22.464,9.077  C60.728,23.42,52.205,13.916,43.615,9.529c-0.2,1.438-0.715,2.818-1.515,4.026c6.945,3.793,14.813,11.944,21.569,27.63L34.75,52.869  c-6.18-16.356-6.093-27.954-3.515-35.374c-1.389-0.416-2.671-1.141-3.754-2.126c-3.511,8.995-3.147,22.169,3.27,39.119L8.405,63.512  c-5.903-19.045,2.726-42.494,19.452-52.167c1.887,2.335,5.145,3.272,8.073,2.089c3.587-1.45,5.323-5.535,3.871-9.124  c-1.448-3.589-5.534-5.323-9.124-3.872c-2.834,1.145-4.502,3.932-4.368,6.822C6.422,18.055-3.332,46.365,5.472,68.159  c8.873,21.959,31.994,33.874,54.4,29.418c-0.364-0.544-0.678-1.134-0.927-1.761c-0.315-0.767-0.509-1.548-0.614-2.33  C38.509,97.079,18.177,86.649,9.908,67.56l22.451-9.07c7.096,16.687,17.457,27.979,26.167,32.453  c-0.177-1.57,0.86-3.617,1.886-4.248c-6.914-4.306-17.339-14.255-24.048-29.826l28.925-11.685c5.834,15.48,5.524,30.027,3.764,38.02  c1.369-0.229,3.516,0.504,4.562,1.646c2.733-9.379,1.956-24.883-4.323-41.284l22.544-9.11c7.096,19.197-2.372,42.487-18.511,53.86  c-1.91-2.189-5.062-3.049-7.907-1.897c-3.592,1.446-5.327,5.529-3.876,9.121c1.45,3.59,5.537,5.322,9.128,3.875  c2.891-1.171,4.58-4.061,4.358-7.014C93.642,79.848,104.188,53.43,95.447,31.804z"></path></svg>