<?xml version="1.0" encoding="utf-8"?><!DOCTYPE svg PUBLIC "-//W3C//DTD SVG 1.1//EN" "http://www.w3.org/Graphics/SVG/1.1/DTD/svg11.dtd"><svg version="1.1" xmlns="http://www.w3.org/2000/svg" xmlns:xlink="http://www.w3.org/1999/xlink" x="0px" y="0px" viewBox="9.686 -0.002 80.628 100" enable-background="new 9.686 -0.002 80.628 100" xml:space="preserve"><path d="M57.258,61.139h-4.874l0.553,1.481l0.079,0.104h3.45c0.986,0,1.621,0.767,1.621,1.753v11.015l1.555-0.776l-0.016-11.066
	C59.626,62.662,58.247,61.139,57.258,61.139z M56.665,89.689H52.7c-3.506,0-6.346-2.839-6.346-6.344s2.84-6.344,6.346-6.344h3.965
	l0.184-0.097l-0.002-10.804c0-0.984-0.98-1.79-1.969-1.79H35.632c0.157,0.767,0.127,1.572-0.124,2.354l-1.003,3.122
	c-0.62,1.941-2.406,3.246-4.445,3.246c-0.485,0-0.966-0.078-1.427-0.226l-3.127-1.005c-2.446-0.788-3.802-3.421-3.018-5.875
	c0.147-0.449,0.353-0.866,0.617-1.24c-0.048-0.125-0.087-0.253-0.135-0.377h-8.358c-0.144-0.005-0.273-0.013-0.393-0.033h-0.977
	c-0.436,0-0.792-0.357-0.792-0.794c0-0.36,0.239-0.667,0.567-0.761h9.888l-0.553-1.587h-7.737l0.036-0.013
	c-3.831-0.003-5.001,0.041-4.964,4.808v32.236c0,0.988,0.983,1.83,1.971,1.83H54.88c0.986,0,1.978-0.812,1.978-1.796l-0.002-8.608
	L56.665,89.689z M35.405,63.52h16.343l-2.401-6.501l-14.662,5.285C34.989,62.675,35.233,63.083,35.405,63.52z M40.734,11.51
	c-1.237,0-2.359-0.401-3.158-0.838l-0.571,2.226c0.723,0.398,1.96,0.76,3.235,0.817v1.805h1.883v-1.957
	c2.185-0.361,3.366-1.808,3.366-3.502c0-1.729-0.895-2.776-3.157-3.574c-1.638-0.592-2.3-1.009-2.3-1.619
	c0-0.532,0.399-1.084,1.636-1.084c1.367,0,2.261,0.436,2.739,0.666L44.976,2.3c-0.668-0.305-1.522-0.59-2.777-0.627v-1.675h-1.864
	v1.811c-2.036,0.38-3.214,1.692-3.214,3.385c0,1.844,1.389,2.795,3.422,3.48c1.429,0.476,2.035,0.934,2.035,1.657
	C42.578,11.071,41.836,11.51,40.734,11.51z M26.646,65.603c-0.639,0.105-1.202,0.551-1.415,1.212
	c-0.301,0.94,0.216,1.948,1.159,2.251l3.125,1.003c0.94,0.303,1.949-0.217,2.25-1.158l1.002-3.124
	c0.215-0.671,0.014-1.377-0.462-1.834c-0.191-0.187-0.426-0.328-0.696-0.418c-0.65-0.206-1.322-0.021-1.783,0.42
	c-1.065-2.224-1.788-4.592-2.142-7.066c-1.603-11.202,4.912-22.211,15.489-26.185c0.924-0.348,1.395-1.379,1.045-2.305
	c-0.097-0.259-0.247-0.477-0.43-0.656c-0.483-0.467-1.206-0.641-1.875-0.394C29.778,31.909,22.304,44.543,24.14,57.394
	C24.549,60.27,25.397,63.021,26.646,65.603z M60.725,25.432c-4.151-1.498-5.841-2.558-5.841-4.102c0-1.352,1.016-2.751,4.152-2.751
	c3.474,0,5.744,1.109,6.948,1.689l1.45-5.454c-1.689-0.771-3.859-1.496-7.046-1.591V8.974h-4.73v4.585
	c-5.167,0.966-8.156,4.293-8.156,8.592c0,4.68,3.524,7.091,8.687,8.83c3.619,1.204,5.163,2.364,5.163,4.2
	c0,1.88-1.882,2.992-4.679,2.992c-3.139,0-5.985-1.015-8.015-2.126l-1.446,5.647c1.834,1.015,4.969,1.929,8.202,2.077v4.583h4.78
	v-4.971c5.55-0.917,8.542-4.585,8.542-8.879C68.737,30.112,66.469,27.459,60.725,25.432z M84.559,16.184
	c-2.981-1.08-4.197-1.842-4.197-2.951c0-0.97,0.727-1.976,2.98-1.976c2.5,0,4.131,0.797,5,1.214l1.036-3.922
	c-1.215-0.552-2.772-1.072-5.066-1.141V4.354h-3.397V7.65c-3.712,0.693-5.864,3.087-5.864,6.173c0,3.367,2.534,5.101,6.246,6.349
	c2.604,0.866,3.712,1.701,3.712,3.019c0,1.352-1.355,2.151-3.365,2.151c-2.256,0-4.304-0.732-5.758-1.529l-1.039,4.06
	c1.317,0.728,3.57,1.389,5.896,1.494v3.292h3.434v-3.574c3.987-0.657,6.139-3.296,6.139-6.382
	C90.315,19.548,88.686,17.64,84.559,16.184z M73.52,36.949c0.117,0,0.232-0.009,0.349-0.022h-0.569
	C73.372,36.931,73.446,36.949,73.52,36.949z M58.087,88.181v9.06c0.899-0.099,1.583-0.905,1.583-1.829l-0.013-8.015L58.087,88.181z
	 M52.7,78.586c-2.632,0-4.76,2.13-4.76,4.758s2.13,4.759,4.76,4.759h3.965l2.979-2.502l-0.01-9.453l-2.969,2.438L52.7,78.586
	L52.7,78.586z M52.7,85.725c-1.312,0-2.381-1.067-2.381-2.381c0-1.312,1.069-2.379,2.381-2.379c1.309,0,2.376,1.065,2.376,2.379
	S54.009,85.725,52.7,85.725z"></path></svg>