<svg xmlns:dc="http://purl.org/dc/elements/1.1/" xmlns:cc="http://creativecommons.org/ns#" xmlns:rdf="http://www.w3.org/1999/02/22-rdf-syntax-ns#" xmlns:svg="http://www.w3.org/2000/svg" xmlns="http://www.w3.org/2000/svg" xmlns:sodipodi="http://sodipodi.sourceforge.net/DTD/sodipodi-0.dtd" xmlns:inkscape="http://www.inkscape.org/namespaces/inkscape" version="1.1" x="0px" y="0px" viewBox="0 0 64 64"><g transform="translate(0,-988.36218)"><path style="text-indent:0;text-transform:none;direction:ltr;block-progression:tb;baseline-shift:baseline;color:#000000;enable-background:accumulate;" d="m 16.436448,996.35316 a 0.50005,0.50005 0 0 0 -0.0312,0.0312 0.50005,0.50005 0 0 0 -0.0312,0 0.50005,0.50005 0 0 0 -0.0312,0.0312 0.50005,0.50005 0 0 0 -0.0625,0 0.50005,0.50005 0 0 0 -0.0312,0.0312 0.50005,0.50005 0 0 0 -0.125,0.0625 0.50005,0.50005 0 0 0 -0.0312,0.0312 0.50005,0.50005 0 0 0 -0.0312,0.0625 l -7.8125,7.81254 a 0.50005,0.50005 0 0 0 -0.1249995,0.094 0.50825068,0.50825068 0 0 0 0,0.031 0.50005,0.50005 0 0 0 -0.0625,0.094 0.50825068,0.50825068 0 0 0 -0.0312,0.031 0.50005,0.50005 0 0 0 0,0.031 0.50005,0.50005 0 0 0 -0.0312,0.094 0.50825068,0.50825068 0 0 0 0,0.031 0.50005,0.50005 0 0 0 0,0.031 0.50825068,0.50825068 0 0 0 0,0.062 l 0,38.8124 a 0.50005,0.50005 0 0 0 0,0.094 l 0,0.031 a 0.50005,0.50005 0 0 0 0.0937,0.2813 0.50005,0.50005 0 0 0 0.0312,0.031 0.50005,0.50005 0 0 0 0.3749995,0.1874 l 38.812496,0 a 0.50005,0.50005 0 0 0 0.28125,0 0.50005,0.50005 0 0 0 0.15625,-0.062 0.50005,0.50005 0 0 0 0.0937,-0.094 l 0.0625,-0.062 a 0.50005,0.50005 0 0 0 0.0312,-0.031 l 7.875,-7.8437 a 0.50005,0.50005 0 0 0 0.0625,-0.062 0.50005,0.50005 0 0 0 0.0312,-0.031 0.50005,0.50005 0 0 0 0.0312,-0.094 0.50005,0.50005 0 0 0 0.0312,-0.031 0.50005,0.50005 0 0 0 0.0312,-0.1876 l 0,-38.87494 a 0.50005,0.50005 0 0 0 0,-0.125 0.50005,0.50005 0 0 0 0,-0.0625 0.50005,0.50005 0 0 0 0,-0.0312 0.50005,0.50005 0 0 0 -0.0312,-0.0625 0.50005,0.50005 0 0 0 0,-0.0312 0.50005,0.50005 0 0 0 -0.0625,-0.0625 0.50005,0.50005 0 0 0 0,-0.0312 0.50005,0.50005 0 0 0 -0.0312,0 0.50005,0.50005 0 0 0 -0.0937,-0.125 0.50005,0.50005 0 0 0 -0.28125,-0.0937 l -38.999996,0 a 0.50005,0.50005 0 0 0 -0.0625,0 z m 0.96875,1 36.874996,0 -7,7.00004 -25.187497,0 -0.25,-0.3438 -0.53125,0.3438 -4.312499,0 0,-6.75004 0.40625,-0.25 z m -1.40625,0.71875 0,6.28129 -6.28125,0 6.28125,-6.28129 z m 38.999996,0 0,37.28119 -0.9375,0 0.4375,-0.6562 -0.8125,-0.5625 -0.5625,0.8437 0.59375,0.375 -5.71875,0 0,-30.3124 7,-6.96879 z m -36.468747,0.9375 -0.843749,0.53125 0.562499,0.84374 0.84375,-0.56249 -0.5625,-0.8125 z m 1.65625,2.49999 -0.84375,0.5313 0.5625,0.8437 0.84375,-0.5625 -0.5625,-0.8125 z m -11.031249,3.8438 6.84375,0 0,4.1875 -0.4375,0.6562 0.4375,0.2813 0,25.1249 -7,7 0,-36.9999 0.15625,-0.25 z m 7.84375,0 4.531249,0 0.0312,0.031 0.0312,-0.031 24.656247,0 -0.40625,0.375 0.71875,0.7187 0.4375,-0.4375 0,23.7187 0,5.625 -5.46875,0 0.71875,-0.5 -0.53125,-0.8124 -0.84375,0.5312 0.53125,0.7812 -23.999996,0 0.0312,-0.031 -0.4375,-0.4375 0,-29.5312 z m 29.999996,24.3749 -0.84375,-0.5624 -0.53125,0.8437 0.8125,0.5625 0.5625,-0.8438 z m -0.125,-24.3749 0.125,0 0,0.1562 -0.125,-0.1562 z m -35.781246,0.6875 -0.53125,0.8437 0.84375,0.5625 0.53125,-0.8437 -0.84375,-0.5625 z m 12.406249,0.4687 -0.84375,0.5625 0.5625,0.8125 0.84375,-0.5312 -0.5625,-0.8438 z m 20.937497,0.625 -0.71875,0.7188 0.6875,0.7187 0.71875,-0.7187 -0.6875,-0.7188 z m -30.812496,0.5625 -0.5625,0.8438 0.84375,0.5625 0.53125,-0.8438 -0.8125,-0.5625 z m 11.531249,1.3125 -0.84375,0.5625 0.5625,0.8125 0.84375,-0.5312 -0.5625,-0.8438 z m 17.124997,0.25 -0.6875,0.7188 0.6875,0.6875 0.71875,-0.6875 -0.71875,-0.7188 z m -23.656247,1.75 -0.5625,0.8438 0.84375,0.5312 0.5625,-0.8125 -0.84375,-0.5625 z m 21.531247,0.375 -0.6875,0.6875 0.6875,0.7188 0.71875,-0.7188 -0.71875,-0.6875 z m -13.34375,0.125 -0.84375,0.5625 0.5625,0.8125 0.84375,-0.5312 -0.5625,-0.8438 z m -5.687497,1.1563 -0.5625,0.8437 0.84375,0.5313 0.5625,-0.8438 -0.84375,-0.5312 z m 16.906247,0.8125 -0.71875,0.7187 0.71875,0.6875 0.71875,-0.6875 -0.71875,-0.7187 z m -9.5625,0.5312 -0.84375,0.5625 0.5625,0.8125 0.84375,-0.5312 -0.5625,-0.8438 z m -4.843747,0.3125 -0.53125,0.8125 0.8125,0.5625 0.5625,-0.8437 -0.84375,-0.5313 z m 12.281247,1.2813 -0.71875,0.6875 0.71875,0.7187 0.6875,-0.7187 -0.6875,-0.6875 z m -9.78125,0.375 -0.531247,0.8125 0.812497,0.5625 0.5625,-0.8438 -0.84375,-0.5312 z m 4,0.5312 -0.84375,0.5625 0.5625,0.8125 0.84375,-0.5312 -0.5625,-0.8438 z m -1.5,1.0938 -0.53125,0.8437 0.84375,0.5625 0.53125,-0.8437 -0.84375,-0.5625 z m 5.15625,0.094 -0.71875,0.7187 0.71875,0.7188 0.6875,-0.7188 -0.6875,-0.7187 z m -2,1.3125 -0.21875,0.1562 c -0.034,0 -0.0589,-0.031 -0.0937,-0.031 -0.54637,0 -1,0.4537 -1,1 0,0.5463 0.45363,1 1,1 0.0222,0 0.0407,0 0.0625,0 l 0.0937,0.094 0.15625,-0.1562 c 0.38809,-0.1371 0.6875,-0.5055 0.6875,-0.9375 0,-0.3446 -0.19896,-0.6298 -0.46875,-0.8125 l -0.21875,-0.3125 z m 1.875,1.9062 -0.5625,0.8438 -0.5,0.3125 0.5625,0.8437 0.84375,-0.5625 -0.0625,-0.062 0.53125,-0.8126 -0.8125,-0.5624 z m -4.15625,1.0313 -0.6875,0.6875 0.6875,0.7187 0.71875,-0.7187 -0.71875,-0.6875 z m 6.65625,0.625 -0.5625,0.8437 0.84375,0.5313 0.5625,-0.8125 -0.84375,-0.5625 z m -1.0625,1.4375 -0.84375,0.5625 0.5625,0.8437 0.8125,-0.5625 -0.53125,-0.8437 z m -7.71875,0.031 -0.6875,0.7187 0.6875,0.6875 0.71875,-0.6875 -0.71875,-0.7187 z m 11.28125,0.1874 -0.5625,0.8438 0.84375,0.5312 0.5625,-0.8437 -0.84375,-0.5313 z m 2.5,1.6563 -0.5625,0.8125 0.84375,0.5625 0.5625,-0.8437 -0.84375,-0.5313 z m -15.906247,0.2813 -0.71875,0.6874 0.71875,0.7188 0.718747,-0.7188 -0.718747,-0.6874 z m 11.499997,0.3437 -0.84375,0.5625 0.5625,0.8438 0.8125,-0.5626 -0.53125,-0.8437 z m 6.90625,1.0313 -0.53125,0.8124 0.8125,0.5626 0.5625,-0.8438 -0.84375,-0.5312 z m -20.531247,0.7187 -0.71875,0.7187 0.71875,0.7188 0.6875,-0.7188 -0.6875,-0.7187 z m 15.281247,0.75 -0.84375,0.5625 0.5625,0.8438 0.8125,-0.5626 -0.53125,-0.8437 z m -17.406247,1.375 -0.71875,0.6875 0.71875,0.7188 0.6875,-0.6876 -0.6875,-0.7187 z m 27.687497,0.4375 -0.5625,0.8438 0.84375,0.5624 0.53125,-0.8437 -0.8125,-0.5625 z m -8.625,0.6875 -0.84375,0.5625 0.5625,0.8438 0.8125,-0.5626 -0.53125,-0.8437 z m -21.187497,0.9687 -0.71875,0.7188 0.6875,0.7188 0.71875,-0.7188 -0.6875,-0.7188 z m 32.312497,0 -0.5625,0.8438 0.84375,0.5312 0.53125,-0.8124 -0.8125,-0.5626 z m -34.499996,3.875 30.312496,0 0,5.6563 -0.3125,-0.4687 -0.84375,0.5312 0.5625,0.8439 0.59375,-0.4063 0,0.8436 -37.343746,0 7.03125,-7 z m 31.312496,0 6.28125,0 -6.28125,6.2814 0,-6.2814 z m -4.625,0.1876 -0.84375,0.5312 0.5625,0.8438 0.8125,-0.5626 -0.53125,-0.8124 z m 1.65625,2.5 -0.84375,0.5312 0.5625,0.8438 0.8125,-0.5626 -0.53125,-0.8124 z" fill="#000000" fill-opacity="1" stroke="none" marker="none" visibility="visible" display="inline" overflow="visible"></path></g></svg>