<svg xmlns:x="http://ns.adobe.com/Extensibility/1.0/" xmlns:i="http://ns.adobe.com/AdobeIllustrator/10.0/" xmlns:graph="http://ns.adobe.com/Graphs/1.0/" xmlns="http://www.w3.org/2000/svg" xmlns:xlink="http://www.w3.org/1999/xlink" xmlns:a="http://ns.adobe.com/AdobeSVGViewerExtensions/3.0/" version="1.1" x="0px" y="0px" viewBox="0 0 100 100" enable-background="new 0 0 100 100" xml:space="preserve"><g><path d="M90,21.7h-8.2V15c0-1.1-0.9-2-2-2h-9.7c-1.1,0-2,0.9-2,2v6.7H31.8V15c0-1.1-0.9-2-2-2h-9.7c-1.1,0-2,0.9-2,2v6.7H10   c-1.1,0-2,0.9-2,2V85c0,1.1,0.9,2,2,2h80c1.1,0,2-0.9,2-2V23.7C92,22.6,91.1,21.7,90,21.7z M77.8,17v6.6c0,0,0,0,0,0s0,0,0,0v5.8   h-5.7v-5.8c0,0,0,0,0,0s0,0,0,0V17H77.8z M27.8,17v6.6c0,0,0,0,0,0s0,0,0,0v5.8h-5.7v-5.8c0,0,0,0,0,0s0,0,0,0V17H27.8z M88,83H12   V25.7h6.2v5.9c0,1.1,0.9,2,2,2h9.7c1.1,0,2-0.9,2-2v-5.9h36.3v5.9c0,1.1,0.9,2,2,2h9.7c1.1,0,2-0.9,2-2v-5.9H88V83z"></path><path d="M81.6,47.5h-7.7v-9c0-1.1-0.9-2-2-2H59.8c-0.9,0-1.7,0.6-1.9,1.5l-6,23.6l-1.5-6.4c-0.2-0.9-1-1.6-1.9-1.6h-5.3l-5.5-13.8   c-0.3-0.8-1-1.3-1.9-1.3s-1.6,0.5-1.9,1.3l-5.5,13.8h-10c-1.1,0-2,0.9-2,2s0.9,2,2,2h11.3c0.8,0,1.6-0.5,1.9-1.3L35.8,46l4.1,10.4   c0.3,0.8,1,1.3,1.9,1.3h5.1l3,12.9c0.2,0.9,1,1.5,1.9,1.6c0,0,0,0,0,0c0.9,0,1.7-0.6,1.9-1.5l7.6-30.1h8.6v9c0,1.1,0.9,2,2,2h9.7   c1.1,0,2-0.9,2-2S82.7,47.5,81.6,47.5z"></path></g></svg>