<svg xmlns="http://www.w3.org/2000/svg" xmlns:xlink="http://www.w3.org/1999/xlink" version="1.1" x="0px" y="0px" viewBox="0 0 100 100" enable-background="new 0 0 100 100" xml:space="preserve"><path d="M67.9,61.6H57.6c-0.6,0-1-0.4-1-1s0.4-1,1-1h10.2c5.3,0,9.6-4.3,9.6-9.6s-4.3-9.6-9.6-9.6c0,0-0.1,0-0.1,0l-1,0l-0.1-0.9  c-1-8.1-7.9-14.1-16-14.1c-6.4,0-12.2,3.8-14.8,9.7l-0.3,0.6l-0.7,0c-0.1,0-0.3,0-0.4,0c-6.6,0-11.9,5.3-11.9,11.9  s5.3,11.9,11.9,11.9h8.2c0.6,0,1,0.4,1,1s-0.4,1-1,1h-8.2c-7.7,0-13.9-6.2-13.9-13.9c0-7.6,6.2-13.8,13.8-13.9  c3-6.3,9.3-10.3,16.3-10.3c8.8,0,16.3,6.4,17.8,15c6.1,0.3,11,5.4,11,11.6C79.5,56.5,74.3,61.6,67.9,61.6z"></path><path d="M58.4,66.7c-0.4-0.4-1-0.4-1.4,0l-6,6V48.4c0-0.6-0.4-1-1-1s-1,0.4-1,1v24.2l-6-6c-0.4-0.4-1-0.4-1.4,0  c-0.4,0.4-0.4,1,0,1.4l7.6,7.6c0.1,0.1,0.2,0.2,0.3,0.3l0.6,0.6l8.4-8.4C58.8,67.7,58.8,67,58.4,66.7z"></path></svg>